<svg xmlns="http://www.w3.org/2000/svg" width="32" height="32" viewBox="0 0 32 32" fill="none">
  <!-- Main Leaf Shape -->
  <path d="M16 4C20 6 24 12 24 20C24 20 19 26 16 26C13 26 8 20 8 20C8 12 12 6 16 4Z" fill="url(#leaf-gradient)"/>
  
  <!-- Circuit Lines -->
  <path d="M16 10L16 6" stroke="#333" stroke-width="0.8"/>
  <path d="M16 14L16 18" stroke="#333" stroke-width="0.8"/>
  <path d="M16 22L16 24" stroke="#333" stroke-width="0.8"/>
  <path d="M12 10L14 14" stroke="#333" stroke-width="0.8"/>
  <path d="M20 10L18 14" stroke="#333" stroke-width="0.8"/>
  <path d="M10 18L14 18" stroke="#333" stroke-width="0.8"/>
  <path d="M22 18L18 18" stroke="#333" stroke-width="0.8"/>
  
  <!-- Circuit Nodes -->
  <circle cx="16" cy="6" r="1" fill="#333"/>
  <circle cx="16" cy="14" r="1" fill="#333"/>
  <circle cx="16" cy="22" r="1" fill="#333"/>
  <circle cx="12" cy="10" r="1" fill="#333"/>
  <circle cx="20" cy="10" r="1" fill="#333"/>
  <circle cx="10" cy="18" r="1" fill="#333"/>
  <circle cx="22" cy="18" r="1" fill="#333"/>
  
  <!-- Microcontroller -->
  <rect x="14" y="12" width="4" height="4" rx="0.5" fill="white" stroke="#333" stroke-width="0.5"/>
  
  <!-- Gradients -->
  <defs>
    <linearGradient id="leaf-gradient" x1="8" y1="4" x2="24" y2="26" gradientUnits="userSpaceOnUse">
      <stop offset="0" stop-color="#FFEC3F"/>
      <stop offset="0.5" stop-color="#7AE13E"/>
      <stop offset="1" stop-color="#00B074"/>
    </linearGradient>
  </defs>
</svg> 